<?xml version="1.0" encoding="UTF-8"?>
<svg xmlns="http://www.w3.org/2000/svg" xmlns:xlink="http://www.w3.org/1999/xlink" width="123px" height="58px" viewBox="0 0 122 58" version="1.1">
<defs>
<clipPath id="clip1">
  <path d="M 103 12 L 121.855469 12 L 121.855469 57.886719 L 103 57.886719 Z M 103 12 "/>
</clipPath>
<clipPath id="clip2">
  <path d="M 70 21 L 101 21 L 101 57.886719 L 70 57.886719 Z M 70 21 "/>
</clipPath>
<clipPath id="clip3">
  <path d="M 0 21 L 37 21 L 37 57.886719 L 0 57.886719 Z M 0 21 "/>
</clipPath>
</defs>
<g id="surface1">
<g clip-path="url(#clip1)" clip-rule="nonzero">
<path style=" stroke:none;fill-rule:nonzero;fill:rgb(3.921569%,30.588236%,89.411765%);fill-opacity:1;" d="M 121.023438 31.789062 L 113.277344 31.789062 L 113.25 42.691406 C 113.25 47.933594 117.695312 49 121.066406 49.140625 C 121.511719 49.160156 121.855469 49.53125 121.855469 49.976562 L 121.855469 57.035156 C 121.855469 57.511719 121.46875 57.886719 120.996094 57.875 C 115.15625 57.734375 110.292969 56.144531 107.394531 53.148438 C 103.335938 48.957031 103.429688 44.164062 103.460938 43.742188 L 103.546875 13.609375 C 103.546875 13.148438 103.921875 12.777344 104.378906 12.777344 L 112.511719 12.777344 C 112.972656 12.777344 113.347656 13.152344 113.34375 13.617188 L 113.273438 23.523438 L 121.019531 23.523438 C 121.480469 23.523438 121.851562 23.898438 121.851562 24.363281 L 121.851562 30.953125 C 121.851562 31.417969 121.480469 31.789062 121.019531 31.789062 "/>
</g>
<path style=" stroke:none;fill-rule:nonzero;fill:rgb(3.921569%,30.588236%,89.411765%);fill-opacity:1;" d="M 49.792969 55.734375 L 49.816406 8.332031 C 49.816406 7.871094 49.445312 7.492188 48.984375 7.492188 L 40.835938 7.492188 C 40.378906 7.492188 40.007812 7.867188 40.007812 8.328125 L 40.007812 55.730469 C 40.007812 56.191406 40.378906 56.566406 40.835938 56.566406 L 48.960938 56.566406 C 49.421875 56.566406 49.792969 56.191406 49.792969 55.730469 "/>
<g clip-path="url(#clip2)" clip-rule="nonzero">
<path style=" stroke:none;fill-rule:nonzero;fill:rgb(3.921569%,30.588236%,89.411765%);fill-opacity:1;" d="M 93.300781 37.210938 C 90.808594 36.269531 87.5 35.558594 84.574219 35.074219 C 83.128906 34.816406 81.96875 34.445312 81.136719 33.960938 C 79.710938 33.226562 79.691406 30.960938 81.097656 30.136719 C 82.695312 29.042969 86.59375 29.144531 88.246094 30.371094 C 88.878906 30.746094 89.382812 31.4375 89.746094 32.261719 C 89.867188 32.539062 90.171875 32.679688 90.460938 32.59375 L 97.800781 30.347656 C 98.289062 30.195312 98.523438 29.644531 98.304688 29.175781 C 97.378906 27.207031 95.941406 25.535156 93.976562 24.214844 C 89.183594 20.738281 79.296875 20.785156 74.710938 24.394531 C 70.601562 27.0625 69.574219 34.359375 72.753906 38.125 C 75.441406 41.351562 79.773438 42.503906 83.976562 43.398438 C 83.988281 43.398438 84 43.402344 84.015625 43.40625 C 85.84375 43.691406 88.96875 44.3125 89.953125 45.046875 C 91.515625 45.980469 91.351562 48.152344 89.855469 49.164062 C 89.015625 49.789062 87.65625 50.105469 85.820312 50.105469 C 82.269531 50.097656 79.898438 48.800781 78.824219 45.796875 C 78.726562 45.515625 78.40625 45.34375 78.121094 45.417969 L 70.722656 47.34375 C 70.269531 47.464844 69.996094 47.941406 70.132812 48.398438 C 70.964844 51.105469 72.570312 53.351562 74.925781 54.933594 C 82.832031 60.273438 100.46875 58.90625 100.210938 46.390625 C 100.210938 43.949219 99.574219 41.96875 98.316406 40.515625 C 97.082031 39.089844 95.394531 37.980469 93.300781 37.214844 "/>
</g>
<path style=" stroke:none;fill-rule:nonzero;fill:rgb(3.921569%,30.588236%,89.411765%);fill-opacity:1;" d="M 55.671875 23.035156 L 55.671875 55.734375 C 55.671875 56.195312 56.042969 56.570312 56.5 56.570312 L 64.769531 56.570312 C 65.226562 56.570312 65.597656 56.195312 65.597656 55.734375 L 65.597656 23.035156 C 65.597656 22.574219 65.226562 22.199219 64.769531 22.199219 L 56.5 22.199219 C 56.042969 22.199219 55.671875 22.574219 55.671875 23.035156 Z M 55.671875 23.035156 "/>
<path style=" stroke:none;fill-rule:nonzero;fill:rgb(90.196079%,30.588236%,21.176471%);fill-opacity:1;" d="M 60.636719 10.882812 C 57.648438 10.882812 55.226562 8.445312 55.226562 5.441406 L 55.226562 11.1875 C 55.226562 14.191406 57.648438 16.625 60.636719 16.625 C 63.621094 16.625 66.042969 14.1875 66.042969 11.1875 L 66.042969 5.441406 C 66.042969 8.445312 63.621094 10.882812 60.636719 10.882812 Z M 60.636719 10.882812 "/>
<path style=" stroke:none;fill-rule:nonzero;fill:rgb(3.921569%,30.588236%,89.411765%);fill-opacity:1;" d="M 60.636719 10.882812 C 63.621094 10.882812 66.042969 8.445312 66.042969 5.441406 C 66.042969 2.4375 63.621094 0 60.636719 0 C 57.648438 0 55.226562 2.4375 55.226562 5.441406 C 55.226562 8.445312 57.648438 10.878906 60.636719 10.878906 "/>
<g clip-path="url(#clip3)" clip-rule="nonzero">
<path style=" stroke:none;fill-rule:nonzero;fill:rgb(3.921569%,30.588236%,89.411765%);fill-opacity:1;" d="M 18.046875 48.660156 C 12.90625 48.660156 9.171875 44.878906 9.171875 39.667969 C 9.171875 34.570312 12.90625 30.871094 18.046875 30.871094 C 23.191406 30.871094 26.855469 34.570312 26.855469 39.667969 C 26.855469 44.765625 23.152344 48.660156 18.046875 48.660156 Z M 18.011719 21.644531 C 8.066406 21.644531 0 29.757812 0 39.765625 C 0 49.769531 8.066406 57.882812 18.011719 57.882812 C 27.960938 57.882812 36.027344 49.769531 36.027344 39.765625 C 36.027344 29.757812 27.960938 21.644531 18.011719 21.644531 "/>
</g>
</g>
</svg>
